# xmcd
#
# Track frame offsets: 
#        150
#        12449
#        20262
#        34777
#        45627
#        57512
#        68969
#        80529
#        93672
#        106622
#        118289
#        128862
#        141911
#        154659
#        165178
#        176656
#        187894
#        200668
#        213182
#        221555
#
# Disc length: 3064 seconds
#
# Revision: 0
# Processed by: cddbd v1.5.2PL0 Copyright (c) Steve Scherf et al.
# Submitted via: ExactAudioCopy v1.1
#
DISCID=170bf614
DTITLE=Red Foley - The Complete US Country Hits 1944-59_CD3
DYEAR=2014
DGENRE=Country
TTITLE0=Milk Bucket Boogie
TTITLE1=Salty Dog Rag
TTITLE2=Midnight
TTITLE3=Don't Let The Stars Get In Your Eyes
TTITLE4=Hot Toddy
TTITLE5=Ernest Tubb and Red Foley - No Help Wanted No. 2
TTITLE6=Slaves Of A Hopeless Love Affair
TTITLE7=Red Foley and Anita Kerr Singers - Shake A Hand
TTITLE8=Put Christ Back into Christmas
TTITLE9=Red Foley and Betty Foley - As Far As Iｴm Concerned
TTITLE10=Jilted
TTITLE11=Kitty Wells and Red Foley - One By One
TTITLE12=Kitty Wells and Red Foley - I'm A Stranger In My Home
TTITLE13=Red Foley and Anita Kerr Singers - Hearts Of Stone
TTITLE14=Kitty Wells and Red Foley - As Long As I Live
TTITLE15=Kitty Wells and Red Foley - Make Believe 'til We Can Make It Co
TTITLE15=me True
TTITLE16=Red Foley and Betty Foley - Satisfied Mind
TTITLE17=Kitty Wells and Red Foley - You And Me
TTITLE18=Kitty Wells and Red Foley - No One But You
TTITLE19=Travellin' Man
EXTD=
EXTT0=
EXTT1=
EXTT2=
EXTT3=
EXTT4=
EXTT5=
EXTT6=
EXTT7=
EXTT8=
EXTT9=
EXTT10=
EXTT11=
EXTT12=
EXTT13=
EXTT14=
EXTT15=
EXTT16=
EXTT17=
EXTT18=
EXTT19=
PLAYORDER=
